<?xml version="1.0" encoding="UTF-8" standalone="no"?>
<svg width="512" height="512" viewBox="0 0 512 512" xmlns="http://www.w3.org/2000/svg">
  <rect width="512" height="512" fill="#3B82F6" rx="128" />
  <g fill="#FFFFFF" transform="translate(128, 128)">
    <path d="M128 0C57.3 0 0 57.3 0 128s57.3 128 128 128 128-57.3 128-128S198.7 0 128 0zm0 230c-56.1 0-102-45.9-102-102s45.9-102 102-102 102 45.9 102 102-45.9 102-102 102z"/>
    <path d="M128 38c-49.7 0-90 40.3-90 90s40.3 90 90 90 90-40.3 90-90-40.3-90-90-90zm0 160c-38.6 0-70-31.4-70-70s31.4-70 70-70 70 31.4 70 70-31.4 70-70 70z"/>
    <path d="M128 86c-23.2 0-42 18.8-42 42s18.8 42 42 42 42-18.8 42-42-18.8-42-42-42zm0 64c-12.1 0-22-9.9-22-22s9.9-22 22-22 22 9.9 22 22-9.9 22-22 22z"/>
  </g>
</svg>
