<?xml version="1.0" encoding="UTF-8" standalone="no"?>
<svg width="192" height="192" viewBox="0 0 192 192" xmlns="http://www.w3.org/2000/svg">
  <rect width="192" height="192" fill="#3B82F6" rx="48" />
  <g fill="#FFFFFF" transform="translate(48, 48)">
    <path d="M48 0C21.5 0 0 21.5 0 48s21.5 48 48 48 48-21.5 48-48S74.5 0 48 0zm0 86c-21 0-38-17-38-38s17-38 38-38 38 17 38 38-17 38-38 38z"/>
    <path d="M48 14c-18.8 0-34 15.2-34 34s15.2 34 34 34 34-15.2 34-34-15.2-34-34-34zm0 60c-14.4 0-26-11.6-26-26s11.6-26 26-26 26 11.6 26 26-11.6 26-26 26z"/>
    <path d="M48 32c-8.8 0-16 7.2-16 16s7.2 16 16 16 16-7.2 16-16-7.2-16-16-16zm0 24c-4.4 0-8-3.6-8-8s3.6-8 8-8 8 3.6 8 8-3.6 8-8 8z"/>
  </g>
</svg>
